<?xml version="1.0" encoding="UTF-8" ?>
<svg
  width="1000"
  height="1000"
  viewBox="0 0 2800 2800"
  xmlns="http://www.w3.org/2000/svg"
  xmlns:xlink="http://www.w3.org/1999/xlink"
>
  <defs>
    <mask id="dot-mask">
      <rect x="0" y="0" width="2800" height="2800" fill="white" />
      <circle cx="1400" cy="1400" r="600" fill="black" />
    </mask>

    <mask id="ldn-mask">
      <rect x="0" y="0" width="2800" height="2800" fill="black" />
      <g id="ldn">
        <g id="l-and-n" mask="url(#dot-mask)">
          <path
            id="L"
            fill="none"
            stroke="white"
            stroke-width="400"
            stroke-linecap="round"
            stroke-linejoin="round"
            d="M 200 200 L 200 2600 L 2600 2600"
          />
          <path
            id="N"
            fill="none"
            stroke="white"
            stroke-width="400"
            stroke-linecap="round"
            stroke-linejoin="round"
            d="M 200 200 L 2600 2600 L 2600 200"
          />
        </g>
        <circle id="dot" cx="1400" cy="1400" r="400" fill="white" />
      </g>
    </mask>

    <linearGradient id="tl-br" x1="0%" y1="0%" x2="100%" y2="100%">
      <stop offset="0%" stop-color="#ffffff" />
      <stop offset="100%" stop-color="white" stop-opacity="0" />
    </linearGradient>
    <linearGradient id="tr-bl" x1="100%" y1="0%" x2="0%" y2="0%">
      <stop offset="0%" stop-color="#00ffd0" />
      <stop offset="100%" stop-color="#00ffd0" stop-opacity="0" />
    </linearGradient>
    <linearGradient id="br-tl" x1="100%" y1="100%" x2="0%" y2="0%">
      <stop offset="0%" stop-color="#1500ff" />
      <stop offset="100%" stop-color="#1500ff" stop-opacity="0" />
    </linearGradient>
    <linearGradient id="bl-tr" x1="0%" y1="100%" x2="100%" y2="0%">
      <stop offset="0%" stop-color="#ff00e1" />
      <stop offset="100%" stop-color="#ff00e1" stop-opacity="0" />
    </linearGradient>
  </defs>

  <g id="gradient" mask="url(#ldn-mask)">
    <rect x="0" y="0" width="2800" height="2800" fill="black" />
    <rect x="0" y="0" width="2800" height="2800" fill="url(#tl-br)" />
    <rect x="0" y="0" width="2800" height="2800" fill="url(#tr-bl)" />
    <rect x="0" y="0" width="2800" height="2800" fill="url(#br-tl)" />
    <rect x="0" y="0" width="2800" height="2800" fill="url(#bl-tr)" />
  </g>
</svg>
